<svg width="496" height="311" viewBox="0 0 496 311" fill="none" xmlns="http://www.w3.org/2000/svg">
<path fill-rule="evenodd" clip-rule="evenodd" d="M103.169 56.2265C98.8391 52.9008 93.0659 52.0775 88.1007 54.0761C84.375 55.5769 81.4906 58.4443 79.9767 62.1473C78.4648 65.85 78.505 69.9479 80.0912 73.685C82.6769 79.7763 88.8283 83.5637 95.3999 83.1073C96.9776 82.9987 98.5183 82.6446 99.9778 82.0568C101.435 81.4692 102.782 80.6596 103.978 79.6527C108.962 75.4542 110.572 68.5405 107.986 62.4491C106.948 60.0006 105.282 57.8493 103.169 56.2265ZM83.1687 82.2386C80.6892 80.3341 78.6743 77.7906 77.3936 74.7716C75.5 70.3116 75.4528 65.4222 77.2585 61.0023C79.0621 56.5826 82.5058 53.1617 86.9523 51.3702C92.8782 48.9843 99.7669 49.9659 104.931 53.9324C107.454 55.8703 109.443 58.4397 110.684 61.3625C113.769 68.6326 111.848 76.883 105.901 81.8938C104.474 83.0952 102.867 84.0609 101.126 84.7628C99.3845 85.4637 97.5475 85.8857 95.664 86.0165C91.0782 86.335 86.6607 84.9208 83.1687 82.2386Z" fill="#F2F2F2"/>
<path fill-rule="evenodd" clip-rule="evenodd" d="M55.2801 62.5076C50.9502 59.1818 45.1771 58.3586 40.2119 60.3572C36.4861 61.858 33.6018 64.7254 32.0878 68.4283C30.5759 72.1311 30.6162 76.229 32.2024 79.966C34.7881 86.0574 40.9395 89.8448 47.5111 89.3883C49.0897 89.2786 50.6295 88.9257 52.0881 88.339C53.5464 87.7502 54.893 86.9407 56.0894 85.9337C61.0731 81.7352 62.6832 74.8215 60.0976 68.7302C59.0587 66.2817 57.3928 64.1304 55.2801 62.5076ZM35.2801 88.5198C32.8005 86.6152 30.7865 84.0707 29.5049 81.0528C27.6113 76.5928 27.5641 71.7034 29.3698 67.2835C31.1735 62.8638 34.6171 59.4429 39.0636 57.6514C44.9896 55.2655 51.8782 56.247 57.0424 60.2136C59.5653 62.1515 61.5547 64.7209 62.7956 67.6437C65.8807 74.9138 63.9593 83.1642 58.0126 88.175C56.5849 89.3764 54.9786 90.3421 53.2378 91.044C51.4958 91.7449 49.6588 92.1668 47.7753 92.2977C43.1895 92.6162 38.7732 91.2029 35.2801 88.5198Z" fill="#F2F2F2"/>
<path fill-rule="evenodd" clip-rule="evenodd" d="M61.5615 110.396C57.2316 107.071 51.4585 106.247 46.4933 108.246C42.7675 109.747 39.8832 112.614 38.3692 116.317C36.8573 120.02 36.8976 124.118 38.4838 127.855C41.0686 133.947 47.2208 137.734 53.7925 137.277C55.3702 137.168 56.9109 136.814 58.3704 136.227C59.8278 135.639 61.1744 134.829 62.3708 133.823C67.3544 129.624 68.9646 122.71 66.379 116.619C65.3401 114.17 63.6731 112.018 61.5615 110.396ZM41.5613 136.408C39.0818 134.504 37.0677 131.959 35.7862 128.941C33.8926 124.481 33.8454 119.592 35.6511 115.172C37.4547 110.752 40.8983 107.331 45.3449 105.54C51.2708 103.154 58.1595 104.136 63.3237 108.102C65.8466 110.04 67.8359 112.609 69.0778 115.531C72.1619 122.802 70.2405 131.053 64.2938 136.064C62.8661 137.265 61.2599 138.231 59.519 138.933C57.777 139.633 55.9401 140.055 54.0566 140.186C49.4708 140.505 45.0545 139.091 41.5613 136.408Z" fill="#F2F2F2"/>
<path fill-rule="evenodd" clip-rule="evenodd" d="M281.874 0L230 39.2797L290 64.5L281.874 0ZM235.999 38.8851L279.444 5.99989L286.249 59.9999L235.999 38.8851Z" fill="#F2F2F2"/>
<path fill-rule="evenodd" clip-rule="evenodd" d="M402.637 133.295L468.809 157.38L492.894 91.2082L426.722 67.1237L402.637 133.295ZM407.543 131.008L466.522 152.474L487.988 93.4953L429.009 72.0287L407.543 131.008Z" fill="#F2F2F2"/>
<path fill-rule="evenodd" clip-rule="evenodd" d="M260 157.163L261.917 160.483L290.973 143.707L274.064 181.522L276.425 185.611L276.567 185.295L305.424 168.634L288.514 206.448L290.876 210.538L290.883 210.521L319.928 193.752L303.018 231.566L303.254 231.975L303.208 232.001L305.125 235.322L305.171 235.295L305.379 235.657L305.669 235.008L334.182 218.546L317.272 256.36L319.632 260.449L319.774 260.132L348.632 243.472L331.723 281.287L334.083 285.375L334.091 285.359L363.136 268.59L346.226 306.405L348.587 310.494L368.884 265.104L367.039 261.909L336.76 279.391L354.38 239.985L352.536 236.79L322.443 254.164L339.928 215.059L338.084 211.866L308.338 229.04L325.676 190.266L323.831 187.071L293.552 204.553L311.173 165.147L309.328 161.952L279.235 179.326L296.721 140.221L294.876 137.027L260 157.163Z" fill="#F2F2F2"/>
</svg>
